<svg xmlns="http://www.w3.org/2000/svg" xmlns:xlink="http://www.w3.org/1999/xlink" viewBox="0 0 42.833 45.846"><defs><style>.a{fill:url(#a);}.b{fill:#fff;}</style><linearGradient id="a" y1="0.5" x2="0.999" y2="0.5" gradientUnits="objectBoundingBox"><stop offset="0" stop-color="#0071bc"/><stop offset="1" stop-color="#29abe2"/></linearGradient></defs><g transform="translate(-416 -71)"><path d="M47.9,30.2" transform="translate(407.106 65.392)"/><g transform="translate(416 71)"><path class="a" d="M29.315,0A3.18,3.18,0,0,0,26.14,3.176V24.43a4.723,4.723,0,1,1-9.446,0V3.176A3.18,3.18,0,0,0,13.518,0H3.176A3.234,3.234,0,0,0,0,3.176V24.43a21.417,21.417,0,0,0,42.833,0V3.176A3.18,3.18,0,0,0,39.657,0Z" transform="translate(0 0)"/><path class="b" d="M43.685,3.493a.467.467,0,0,0-.57.163l-7.329,12.3a.519.519,0,0,0,0,.489.448.448,0,0,0,.407.244h4.316l-1.792,8.225a.463.463,0,0,0,.326.57h.163a.448.448,0,0,0,.407-.244l6.677-12.378a.519.519,0,0,0,0-.489.448.448,0,0,0-.407-.244H42.219l1.71-8.143a.363.363,0,0,0-.244-.489Zm0,0" transform="translate(-6.633 -0.643)"/></g></g></svg>