<svg xmlns="http://www.w3.org/2000/svg" xmlns:xlink="http://www.w3.org/1999/xlink" viewBox="0 0 98.224 30.055"><defs><style>.a{fill:url(#a);}.b{fill:#fff;}.c{fill:#0b80c6;}</style><linearGradient id="a" y1="0.5" x2="0.999" y2="0.5" gradientUnits="objectBoundingBox"><stop offset="0" stop-color="#0071bc"/><stop offset="1" stop-color="#29abe2"/></linearGradient></defs><g transform="translate(-416 -71)"><path d="M47.9,30.2" transform="translate(393.67 56.922)"/><g transform="translate(416 71)"><path class="a" d="M19.218,0a2.084,2.084,0,0,0-2.082,2.082V16.015a3.1,3.1,0,1,1-6.192,0V2.082A2.084,2.084,0,0,0,8.862,0H2.082A2.12,2.12,0,0,0,0,2.082V16.015a14.04,14.04,0,1,0,28.079,0V2.082A2.084,2.084,0,0,0,26,0Z" transform="translate(0 0)"/><path class="b" d="M40.943,3.482a.306.306,0,0,0-.374.107l-4.8,8.061a.34.34,0,0,0,0,.32.294.294,0,0,0,.267.16h2.829l-1.174,5.392a.3.3,0,0,0,.214.374h.107a.294.294,0,0,0,.267-.16l4.377-8.114a.34.34,0,0,0,0-.32.294.294,0,0,0-.267-.16h-2.4L41.1,3.8a.238.238,0,0,0-.16-.32Zm0,0" transform="translate(-16.654 -1.613)"/></g><path class="c" d="M71.846,28.652A6.256,6.256,0,0,1,67.308,27,5.713,5.713,0,0,1,65.6,22.619V22.3a7.35,7.35,0,0,1,.694-3.31A4.758,4.758,0,0,1,68.323,16.8a6.006,6.006,0,0,1,3.15-.8,5.307,5.307,0,0,1,4.057,1.6,6.19,6.19,0,0,1,1.495,4.431v1.495h-7.58a2.663,2.663,0,0,0,.907,1.6,2.8,2.8,0,0,0,1.762.587,3.405,3.405,0,0,0,2.829-1.281l1.708,2.029a4.682,4.682,0,0,1-2.029,1.548A6.067,6.067,0,0,1,71.846,28.652Zm-.427-9.716c-1.121,0-1.762.747-1.975,2.189h3.844v-.267a1.907,1.907,0,0,0-.48-1.388A1.736,1.736,0,0,0,71.419,18.936Z" transform="translate(385.419 63.541)"/><path class="c" d="M90.33,16.214l.107,1.441A4.132,4.132,0,0,1,93.907,16,3.02,3.02,0,0,1,97,17.815,4.009,4.009,0,0,1,100.58,16c2.456,0,3.737,1.495,3.79,4.484v7.954h-3.79V20.7a2.423,2.423,0,0,0-.32-1.388,1.416,1.416,0,0,0-1.174-.427A1.694,1.694,0,0,0,97.43,19.9v8.488H93.64V20.751a2.309,2.309,0,0,0-.32-1.388,1.416,1.416,0,0,0-1.174-.427A1.743,1.743,0,0,0,90.49,19.95v8.488H86.7V16.214Z" transform="translate(375.583 63.541)"/><path class="c" d="M127.274,28.438a3.5,3.5,0,0,1-.374-1.068,3.583,3.583,0,0,1-2.936,1.335,4.315,4.315,0,0,1-2.936-1.068,3.315,3.315,0,0,1-1.228-2.616,3.421,3.421,0,0,1,1.441-2.989,7.318,7.318,0,0,1,4.271-1.014h1.174v-.641c0-1.121-.48-1.708-1.441-1.708A1.166,1.166,0,0,0,123.91,20h-3.79a3.408,3.408,0,0,1,1.495-2.883A6.307,6.307,0,0,1,125.459,16a5.62,5.62,0,0,1,3.683,1.121,3.861,3.861,0,0,1,1.388,3.1v5.392a5.4,5.4,0,0,0,.534,2.562v.214h-3.79Zm-2.349-2.509a2.03,2.03,0,0,0,1.174-.32,2.148,2.148,0,0,0,.694-.694V22.993h-1.121c-1.335,0-1.975.587-1.975,1.762a1.062,1.062,0,0,0,.374.854A1.051,1.051,0,0,0,124.925,25.929Z" transform="translate(360.153 63.541)"/><path class="c" d="M139.953,22.292a8.853,8.853,0,0,1,.587-3.256,4.81,4.81,0,0,1,1.762-2.189,4.476,4.476,0,0,1,2.669-.747,3.725,3.725,0,0,1,2.989,1.281l.16-1.068h3.47V28.058a5.126,5.126,0,0,1-.747,2.776,4.641,4.641,0,0,1-2.189,1.815,7.959,7.959,0,0,1-3.31.641,7.322,7.322,0,0,1-2.616-.48,4.411,4.411,0,0,1-1.922-1.335l1.6-2.242a3.4,3.4,0,0,0,2.776,1.228c1.708,0,2.509-.854,2.509-2.616v-.374a3.642,3.642,0,0,1-2.776,1.228,4.554,4.554,0,0,1-3.63-1.708A7.134,7.134,0,0,1,139.9,22.4v-.107Zm3.844.214a4.116,4.116,0,0,0,.587,2.349,1.767,1.767,0,0,0,1.6.854,2.1,2.1,0,0,0,1.815-.8V19.783a2.036,2.036,0,0,0-1.762-.854,1.814,1.814,0,0,0-1.6.908A4.405,4.405,0,0,0,143.8,22.506Z" transform="translate(350.783 63.495)"/><path class="c" d="M173.744,24.8H162.32V22.346l5.285-5.552q1.922-2.242,1.922-3.523a2.391,2.391,0,0,0-.48-1.6,1.78,1.78,0,0,0-2.723.214,2.923,2.923,0,0,0-.534,1.815H162a5.543,5.543,0,0,1,.747-2.776,5.3,5.3,0,0,1,2.082-1.975,6.206,6.206,0,0,1,2.989-.747,6.292,6.292,0,0,1,4.11,1.228,4.325,4.325,0,0,1,1.441,3.523A4.5,4.5,0,0,1,173,14.819a9.314,9.314,0,0,1-1.121,1.922,28.389,28.389,0,0,1-2.456,2.723l-2.135,2.456h6.459Z" transform="translate(340.48 67.177)"/></g></svg>